<?xml version="1.0" standalone="no"?>
<!DOCTYPE svg PUBLIC "-//W3C//DTD SVG 20010904//EN"
 "http://www.w3.org/TR/2001/REC-SVG-20010904/DTD/svg10.dtd">
<svg version="1.0" xmlns="http://www.w3.org/2000/svg"
 width="1059.000000pt" height="1059.000000pt" viewBox="0 0 1059.000000 1059.000000"
 preserveAspectRatio="xMidYMid meet">
<metadata>
Created by potrace 1.14, written by Peter Selinger 2001-2017
</metadata>
<g transform="translate(0.000000,1059.000000) scale(0.100000,-0.100000)"
fill="#000000" stroke="none">
<path d="M3125 10303 c-289 -26 -561 -84 -820 -173 -554 -192 -1037 -524
-1440 -990 -83 -96 -315 -425 -315 -446 0 -3 -9 -18 -19 -33 -29 -40 -155
-295 -191 -386 -64 -159 -117 -319 -145 -431 -18 -70 -64 -300 -69 -340 -10
-87 -17 -138 -24 -169 -11 -53 -14 -6742 -2 -6785 17 -64 69 -130 130 -164
l55 -31 760 0 760 0 48 25 c58 29 102 77 131 139 20 46 20 53 21 1557 0 1624
-3 1528 49 1557 15 8 237 11 821 12 l800 0 57 28 c32 16 73 46 92 69 68 79 66
51 66 869 l0 737 -31 60 c-32 64 -72 101 -146 134 -46 20 -55 20 -1695 20
l-1649 0 4 862 c2 473 6 872 10 886 3 14 8 50 11 80 4 30 11 80 16 110 5 30
12 71 15 90 3 19 10 51 15 70 5 19 11 44 13 55 7 39 63 237 76 270 5 11 26 65
46 120 253 669 779 1255 1425 1587 69 35 150 74 180 87 30 13 69 29 85 36 67
31 325 113 403 130 9 2 51 11 92 20 41 9 94 19 118 22 l42 5 1 -403 c0 -222 2
-420 5 -439 12 -99 78 -218 159 -287 250 -214 623 -111 737 204 20 55 21 77
24 488 1 237 2 433 3 436 1 7 197 -32 306 -61 82 -22 274 -84 310 -100 11 -5
54 -23 95 -41 121 -51 298 -141 380 -193 300 -192 539 -395 730 -621 23 -27
52 -61 63 -75 12 -14 52 -68 90 -120 415 -573 614 -1271 563 -1980 -8 -114 -9
-129 -33 -270 -87 -529 -313 -1023 -661 -1444 -42 -50 -137 -152 -213 -226
-75 -75 -140 -147 -144 -160 -39 -121 83 -227 196 -170 32 17 224 200 309 296
107 120 247 305 314 414 15 25 41 67 57 94 211 345 389 854 435 1241 3 27 7
63 9 80 27 213 22 639 -10 815 -3 14 -7 41 -10 60 -3 19 -10 58 -15 85 -5 28
-12 62 -14 77 -9 56 -69 277 -98 363 -78 229 -181 454 -299 650 -65 109 -182
282 -198 295 -4 3 -18 21 -31 40 -29 41 -47 63 -152 179 -374 419 -862 740
-1396 920 -81 28 -158 52 -172 55 -14 3 -52 12 -85 21 -33 8 -73 17 -90 21
-16 3 -48 9 -70 14 -45 10 -160 29 -220 36 -22 3 -53 7 -70 9 -38 6 -547 13
-600 8z m433 -286 c4 -7 8 -201 7 -432 -1 -460 0 -451 -62 -506 -87 -77 -217
-55 -275 46 -23 40 -23 42 -26 459 -2 231 -1 425 2 432 6 17 341 18 354 1z
m-2 -4741 c12 -3 29 -17 39 -32 15 -23 16 -78 16 -641 -1 -668 1 -651 -55
-672 -12 -5 -380 -9 -817 -9 l-795 0 -57 -26 c-62 -30 -114 -85 -142 -151 -16
-37 -17 -153 -17 -1534 0 -822 -4 -1505 -7 -1519 -4 -14 -19 -35 -33 -45 -26
-19 -45 -20 -640 -20 -644 0 -645 0 -669 45 -8 15 -11 623 -11 2292 1 1249 1
2281 1 2293 1 12 8 23 18 25 29 5 3146 -1 3169 -6z"/>
<path d="M2765 9513 c-193 -43 -504 -172 -689 -286 -560 -343 -953 -849 -1140
-1469 -20 -65 -37 -128 -40 -140 -2 -13 -13 -73 -25 -133 -28 -150 -36 -248
-36 -460 0 -187 5 -255 31 -415 20 -128 81 -357 105 -396 37 -61 125 -82 186
-44 71 43 83 98 47 221 -65 219 -89 397 -88 644 0 178 6 251 28 381 104 600
437 1123 941 1480 188 134 441 256 658 319 31 9 57 19 58 23 6 49 1 276 -6
278 -6 1 -19 0 -30 -3z"/>
<path d="M3963 9375 l0 -145 41 -11 c259 -66 584 -236 811 -424 532 -440 836
-1075 839 -1755 1 -331 -81 -691 -226 -989 -122 -251 -242 -419 -452 -631
-140 -141 -151 -160 -133 -230 24 -93 127 -132 212 -80 44 27 234 222 315 323
64 81 159 214 186 262 6 11 30 52 53 92 56 99 122 239 164 354 36 95 92 285
103 344 3 17 9 49 14 72 5 22 12 65 15 95 4 29 9 60 11 68 22 65 21 531 0 632
-3 13 -8 43 -11 68 -5 49 -6 49 -29 160 -52 252 -179 565 -325 800 -136 219
-373 486 -571 645 -185 148 -429 291 -650 380 -109 44 -282 100 -341 110 l-26
5 0 -145z"/>
<path d="M4795 4041 c-38 -10 -92 -29 -120 -42 -64 -32 -377 -213 -431 -250
-254 -173 -330 -495 -182 -767 17 -31 51 -90 75 -130 24 -41 43 -75 43 -77 0
-2 18 -33 40 -69 22 -36 40 -68 40 -71 0 -3 9 -18 19 -33 14 -21 295 -504 451
-777 10 -16 41 -70 70 -120 29 -49 58 -99 64 -110 6 -11 97 -169 201 -350 171
-296 198 -337 265 -405 62 -63 92 -84 175 -124 55 -26 109 -52 120 -56 11 -5
94 -40 185 -78 91 -39 194 -82 230 -97 66 -27 190 -56 219 -50 9 1 37 5 62 9
55 8 148 61 186 107 57 67 80 129 99 269 3 25 8 54 10 65 3 11 7 40 10 65 3
25 7 56 9 70 2 14 7 52 10 85 4 33 9 74 11 90 2 17 7 73 11 125 16 228 5 289
-91 460 -91 163 -96 172 -170 300 -40 69 -76 132 -79 140 -4 8 -16 29 -27 45
-10 17 -25 41 -33 55 -34 62 -496 861 -715 1235 -58 99 -115 198 -126 220 -36
68 -153 179 -226 213 -137 65 -281 83 -405 53z m258 -305 c28 -13 64 -36 79
-52 22 -25 138 -209 138 -220 0 -3 11 -21 23 -42 13 -20 35 -57 49 -82 14 -25
102 -177 197 -339 94 -161 171 -295 171 -297 0 -2 15 -27 34 -56 18 -29 45
-75 60 -103 15 -27 32 -59 39 -70 24 -39 54 -91 79 -135 14 -25 103 -180 198
-345 249 -431 264 -462 264 -532 0 -58 -12 -221 -20 -278 -2 -16 -6 -51 -9
-76 -2 -26 -6 -60 -9 -75 -3 -16 -12 -81 -21 -144 -11 -77 -23 -124 -37 -142
-30 -43 -3 -51 -517 166 -165 69 -223 104 -264 157 -19 26 -459 779 -593 1016
-13 23 -63 108 -110 190 -48 81 -94 162 -104 179 -10 16 -52 90 -95 164 -43
74 -86 150 -97 169 -11 20 -63 110 -116 200 -116 201 -130 247 -108 351 11 47
60 123 99 153 28 21 148 93 245 149 18 10 65 36 103 58 39 22 89 46 112 54 56
19 143 12 210 -18z"/>
<path d="M7014 1493 c-97 -48 -94 -194 5 -244 27 -14 69 -17 294 -15 259 1
262 1 294 25 75 56 75 170 0 225 -27 20 -42 21 -295 23 -227 2 -272 0 -298
-14z"/>
<path d="M8152 1500 c-52 -21 -82 -69 -82 -131 0 -49 30 -100 70 -121 37 -18
2280 -21 2326 -3 113 46 110 212 -4 256 -31 12 -2280 11 -2310 -1z"/>
<path d="M6898 720 c-89 -6 -110 -15 -148 -65 -39 -51 -27 -131 24 -170 66
-48 68 -48 775 -48 755 1 722 -2 762 79 36 76 11 150 -64 187 -35 18 -77 19
-650 20 -336 1 -651 0 -699 -3z"/>
<path d="M8924 705 c-92 -38 -109 -159 -33 -231 l30 -29 312 -3 c358 -3 363
-2 404 78 35 68 11 145 -55 181 -30 16 -65 17 -331 17 -218 0 -305 -4 -327
-13z"/>
</g>
</svg>
